<svg width="151" height="44" viewBox="0 0 151 44" fill="none" xmlns="http://www.w3.org/2000/svg">
  <path d="M14.5785 7.94514C16.1702 7.01666 18.1599 7.01668 19.7516 7.94514L28.0195 12.7201C29.6554 13.6486 30.628 15.373 30.5838 17.2299V26.9569C30.4954 28.7695 29.5229 30.4054 27.9755 31.2897L19.7075 36.0646L19.575 36.1532C18.0718 36.949 16.2589 36.9489 14.7115 36.1532L14.5785 36.0646L6.35501 31.2897C4.76336 30.3612 3.79049 28.7254 3.74625 26.9569V17.2299C3.74625 15.4173 4.67482 13.7371 6.17799 12.8086L6.31097 12.7201L14.5785 7.94514ZM17.6735 11.5707C17.364 11.3939 16.9661 11.3939 16.6566 11.5707L8.38865 16.3457C8.03506 16.5226 7.85844 16.8763 7.85844 17.2299V26.7798C7.85844 27.1335 8.07925 27.4872 8.38865 27.6641L16.6566 32.4391C16.9661 32.6159 17.364 32.6159 17.6735 32.4391L25.9414 27.6641C26.2951 27.4873 26.4721 27.1335 26.4721 26.7798V17.2299C26.4721 16.8762 26.2509 16.5225 25.9414 16.3457L17.6735 11.5707ZM13.7828 22.403C14.2691 22.403 14.7115 22.8007 14.7115 23.3313V24.8788C14.7115 25.4093 14.2691 25.8071 13.7828 25.8071C13.2523 25.807 12.8545 25.3651 12.8545 24.8788V23.3313C12.8545 22.8008 13.2965 22.403 13.7828 22.403ZM10.4227 20.59C10.909 20.59 11.3068 20.988 11.351 21.4742V23.0662C11.3509 23.5966 10.909 23.9944 10.4227 23.9945C9.89222 23.9945 9.49407 23.5525 9.49399 23.0662V21.5187C9.49399 20.9882 9.93638 20.59 10.4227 20.59ZM5.69181 2.81613C5.692 2.72796 5.82418 2.72796 5.82437 2.81613C6.17807 4.62887 7.63721 6.088 9.44995 6.44171C9.53837 6.44171 9.53837 6.57427 9.44995 6.57427C7.63723 6.92797 6.1781 8.38714 5.82437 10.1998C5.82437 10.2883 5.69181 10.2883 5.69181 10.1998C5.29386 8.34293 3.87895 6.92797 2.06623 6.57427C1.97792 6.57418 1.97792 6.4418 2.06623 6.44171C3.87898 6.088 5.33811 4.62888 5.69181 2.81613Z" fill="white"></path><path d="M64.815 26.8169H60.448C59.9094 26.8169 59.501 26.3681 59.501 25.8699V14.259C59.501 13.7204 59.0522 13.312 58.554 13.312H56.6196C56.081 13.312 55.6726 13.7608 55.6726 14.259V27.7594C55.6726 29.3797 56.9786 30.6408 58.554 30.6408H64.8105C65.3491 30.6408 65.7575 30.192 65.7575 29.6938V27.7594C65.7575 27.2209 65.3087 26.8124 64.8105 26.8124L64.815 26.8169Z" fill="white"></path><path d="M51.5929 20.0846H44.331C44.0617 20.0846 43.8328 19.8602 43.8328 19.5864V18.1412C43.8328 17.5981 44.2861 17.1942 44.7798 17.1942H51.6018C52.1449 17.1942 52.5489 16.7409 52.5489 16.2472V14.3083C52.5533 13.7024 52.1898 13.3164 51.6467 13.3164H42.8858C41.2611 13.3164 39.9999 14.627 39.9999 16.2023V27.7504C39.9999 29.3751 41.3105 30.6363 42.8858 30.6363H51.5929C52.1359 30.6363 52.5399 30.183 52.5399 29.6893V27.7504C52.5399 27.2073 52.0866 26.8034 51.5929 26.8034H44.8247C44.2816 26.8034 43.8777 26.3501 43.8777 25.8564V24.4112C43.8777 24.1419 44.1021 23.913 44.3759 23.913H51.5929C52.1359 23.913 52.5399 23.4597 52.5399 22.966V21.0271C52.5399 20.484 52.0866 20.0801 51.5929 20.0801V20.0846Z" fill="white"></path><path d="M94.2621 20.0846H87.0002C86.7309 20.0846 86.502 19.8602 86.502 19.5864V18.1412C86.502 17.5981 86.9553 17.1942 87.449 17.1942H94.2711C94.8141 17.1942 95.2181 16.7409 95.2181 16.2472V14.3083C95.2225 13.7024 94.859 13.3164 94.3159 13.3164H85.555C83.9303 13.3164 82.6691 14.627 82.6691 16.2023V27.7504C82.6691 29.3751 83.9797 30.6363 85.555 30.6363H94.2621C94.8051 30.6363 95.2091 30.183 95.2091 29.6893V27.7504C95.2091 27.2073 94.7558 26.8034 94.2621 26.8034H87.4939C86.9508 26.8034 86.5469 26.3501 86.5469 25.8564V24.4112C86.5469 24.1419 86.7713 23.913 87.0451 23.913H94.2621C94.8051 23.913 95.2091 23.4597 95.2091 22.966V21.0271C95.2091 20.484 94.7558 20.0801 94.2621 20.0801V20.0846Z" fill="white"></path><path d="M147.384 13.312H145.324C144.83 13.312 144.426 13.7159 144.426 14.2096V29.7477C144.426 30.2414 144.83 30.6453 145.324 30.6453H147.384C147.878 30.6453 148.282 30.2414 148.282 29.7477V14.2096C148.282 13.7159 147.878 13.312 147.384 13.312Z" fill="white"></path><path d="M75.5148 20.1386C74.8415 19.9591 74.1683 19.9142 73.5849 19.8693C73.136 19.8245 72.7321 19.7796 72.373 19.6898C71.6101 19.5103 71.4305 19.0615 71.3856 18.7024C71.3408 18.2536 71.5203 17.5804 72.2384 17.2213C73.3156 16.6379 75.0211 16.8174 76.0982 17.5355C76.1431 17.5804 76.188 17.5804 76.188 17.6252C76.5022 17.8497 76.951 17.8945 77.2652 17.6701L78.7014 16.7725C79.3746 16.3686 79.5092 15.426 78.9258 14.8875C78.7014 14.7079 78.5218 14.5284 78.2526 14.3489C75.9636 12.778 72.7321 12.5536 70.3983 13.8103C68.3786 14.8875 67.2117 17.0418 67.5258 19.241C67.7951 21.3504 69.366 22.9662 71.5203 23.4599C72.1038 23.5945 72.6872 23.6394 73.2258 23.6843C73.7195 23.7292 74.1683 23.774 74.5723 23.8638C75.1557 23.9985 75.6494 24.3575 75.9187 24.8063C76.0982 25.1205 76.1431 25.4795 76.0534 25.8835C75.9636 26.1528 75.7392 26.9158 74.4376 27.0953C73.3604 27.2299 72.0589 26.8709 71.2959 26.2425C70.9817 25.9732 70.5329 25.9284 70.1738 26.1528L68.7376 27.0504C68.0644 27.4543 67.9746 28.3969 68.5132 28.9354C69.8597 30.237 71.8793 31 73.9439 31C74.303 31 74.6171 31 74.9762 30.9102C77.3549 30.5961 79.1502 29.115 79.7785 26.9606C80.1825 25.5693 80.0029 24.1331 79.3297 22.9213C78.477 21.5748 77.1305 20.5426 75.5148 20.1386Z" fill="white"></path><path d="M108.359 24.3844C110.473 23.4374 111.869 21.2337 111.734 18.7563C111.555 15.6504 108.853 13.3076 105.792 13.3076H101.246C99.6253 13.3076 98.3641 14.6137 98.3641 16.189V29.6939C98.3641 30.2325 98.813 30.6409 99.3111 30.6409H101.246C101.784 30.6409 102.193 30.1921 102.193 29.6939V25.3269C102.193 25.0577 102.417 24.8332 102.686 24.8332H103.723C103.903 24.8332 104.037 24.923 104.127 25.0577L107.273 30.1876C107.453 30.4569 107.767 30.6364 108.086 30.6364H111.057C111.416 30.6364 111.685 30.2325 111.461 29.9183L108.27 24.6986C108.18 24.6088 108.225 24.4293 108.359 24.3844ZM105.972 21.0363H102.74C102.471 21.0363 102.246 20.8118 102.246 20.5426V17.6701C102.246 17.4008 102.471 17.1764 102.74 17.1764H105.882C106.869 17.1764 107.812 17.8945 107.902 18.9268C107.991 20.0489 107.094 21.0363 105.972 21.0363Z" fill="white"></path><path d="M118.475 30.641C119.715 30.641 120.72 29.6363 120.72 28.3969C120.72 27.1575 119.715 26.1528 118.475 26.1528C117.236 26.1528 116.231 27.1575 116.231 28.3969C116.231 29.6363 117.236 30.641 118.475 30.641Z" fill="white"></path><path d="M139.045 30.6408H141.626C141.931 30.6408 142.146 30.34 142.052 30.0483L136.873 14.5417C136.626 13.8101 135.944 13.3164 135.172 13.3164H132.12C131.348 13.3164 130.661 13.8101 130.419 14.5417L125.239 30.0483C125.141 30.34 125.361 30.6408 125.666 30.6408H128.247C128.633 30.6408 128.974 30.3939 129.099 30.0259L129.804 27.9164C129.925 27.5484 130.271 27.3016 130.657 27.3016H136.648C137.034 27.3016 137.375 27.5484 137.501 27.9164L138.206 30.0259C138.327 30.3939 138.673 30.6408 139.059 30.6408H139.045ZM131.483 22.8627L133.215 17.6744C133.35 17.266 133.929 17.266 134.068 17.6744L135.8 22.8627C135.899 23.1545 135.679 23.4552 135.374 23.4552H131.909C131.604 23.4552 131.388 23.1545 131.483 22.8627Z" fill="white">
  </path>
</svg>
